# xmcd
#
# Track frame offsets: 
#        150
#        18945
#        39607
#        58189
#        74613
#        93285
#        107566
#        126379
#        145266
#        163387
#
# Disc length: 2445 seconds
#
# Revision: 0
# Processed by: cddbd v1.5.2PL0 Copyright (c) Steve Scherf et al.
# Submitted via: ExactAudioCopy v0.95b3
#
DISCID=92098b0a
DTITLE=Gregg Rolie - Gregg Rolie
DYEAR=1900
DGENRE=
TTITLE0=Young Love
TTITLE1=Close My Eyes
TTITLE2=I Wanna Go Back
TTITLE3=Let Me Out
TTITLE4=Over And Over
TTITLE5=Don't Talk
TTITLE6=Zap Me
TTITLE7=Marianne
TTITLE8=It's Only Make Believe
TTITLE9=Deep Blue Sea
EXTD=
EXTT0=
EXTT1=
EXTT2=
EXTT3=
EXTT4=
EXTT5=
EXTT6=
EXTT7=
EXTT8=
EXTT9=
PLAYORDER=
